<svg width="124" height="58" viewBox="0 0 124 58" fill="none" xmlns="http://www.w3.org/2000/svg">
<g filter="url(#filter0_d_204_54)">
<rect x="3" y="3" width="118" height="48" rx="22" fill="#4EC407"/>
<rect x="1.5" y="1.5" width="121" height="51" rx="23.5" stroke="white" stroke-width="3"/>
</g>
<rect x="3" y="3" width="118" height="43" rx="21.5" fill="#67EB00"/>
<path opacity="0.5" fill-rule="evenodd" clip-rule="evenodd" d="M45.2286 3H24.5C12.6259 3 3 12.6259 3 24.5C3 36.3741 12.6259 46 24.5 46H82.5614L45.2286 3Z" fill="#A6F208"/>
<g filter="url(#filter1_d_204_54)">
<path d="M13.0312 24.5547C13.0312 23.835 13.0384 22.7912 13.0527 21.4233C13.0671 20.0555 13.0742 19.0225 13.0742 18.3242C14.6605 18.0807 16.057 17.959 17.2637 17.959C17.8402 17.959 18.3307 17.9715 18.7354 17.9966C19.1436 18.0216 19.5643 18.0754 19.9976 18.1577C20.4344 18.2401 20.7979 18.3564 21.0879 18.5068C21.3779 18.6536 21.659 18.8524 21.9312 19.103C22.2033 19.3537 22.4163 19.658 22.5703 20.0161C22.7279 20.3706 22.8532 20.8021 22.9463 21.3105C23.0394 21.8154 23.0859 22.3937 23.0859 23.0454C23.0859 23.4966 23.0591 23.9119 23.0054 24.2915C22.9517 24.6711 22.8747 25.0148 22.7744 25.3228C22.6742 25.6271 22.5452 25.9028 22.3877 26.1499C22.2337 26.397 22.0601 26.6154 21.8667 26.8052C21.6769 26.9914 21.4567 27.1543 21.2061 27.2939C20.959 27.4336 20.6976 27.5518 20.4219 27.6484C20.1462 27.7415 19.84 27.8167 19.5034 27.874C19.1668 27.9313 18.8231 27.9725 18.4722 27.9976C18.1248 28.0226 17.7435 28.0352 17.3281 28.0352C17.3568 29.6823 17.3711 30.6706 17.3711 31C16.7015 31.0286 16.0713 31.043 15.4805 31.043C15.0007 31.043 14.2702 31.0286 13.2891 31C13.2318 31 13.1816 30.9785 13.1387 30.9355C13.0957 30.8926 13.0742 30.8424 13.0742 30.7852C13.0742 30.1227 13.0671 29.1004 13.0527 27.7183C13.0384 26.3361 13.0312 25.2816 13.0312 24.5547ZM17.2852 24.5117H17.6235C17.756 24.5117 17.8688 24.5046 17.9619 24.4902C18.0586 24.4759 18.1571 24.4419 18.2573 24.3882C18.3612 24.3309 18.4435 24.2539 18.5044 24.1572C18.5688 24.057 18.6208 23.9191 18.6602 23.7437C18.7031 23.5682 18.7246 23.3569 18.7246 23.1099C18.7246 22.87 18.721 22.6784 18.7139 22.5352C18.7103 22.3883 18.6942 22.2541 18.6655 22.1323C18.6405 22.0106 18.6082 21.9211 18.5688 21.8638C18.533 21.8065 18.4757 21.7563 18.397 21.7134C18.3182 21.6704 18.2323 21.6453 18.1392 21.6382C18.0496 21.6274 17.9279 21.6221 17.7739 21.6221H17.2852V24.5117ZM24.9542 24.5547C24.9542 22.5495 24.9829 20.401 25.0402 18.1094C25.7205 18.0771 27.2065 18.061 29.4982 18.061C31.1202 18.061 32.3699 18.0771 33.2472 18.1094C33.3045 18.1094 33.3546 18.1309 33.3976 18.1738C33.4405 18.2168 33.462 18.2669 33.462 18.3242C33.4764 19.1979 33.4835 19.8174 33.4835 20.1826C33.4835 20.7448 33.4764 21.2712 33.462 21.7617C32.8569 21.7904 31.7182 21.8047 30.046 21.8047C29.7452 21.8047 29.4731 21.8029 29.2296 21.7993C29.2224 22.2935 29.2171 22.6694 29.2135 22.9272C30.4954 22.9344 31.353 22.9469 31.7863 22.9648C31.8435 22.9648 31.8937 22.9863 31.9366 23.0293C31.9796 23.0723 32.0011 23.1224 32.0011 23.1797C32.0118 23.7669 32.0172 24.3058 32.0172 24.7964C32.0172 25.2368 32.0118 25.7148 32.0011 26.2305H29.2135C29.2171 26.4811 29.2224 26.8535 29.2296 27.3477H29.4874C31.242 27.3477 32.5096 27.362 33.2902 27.3906C33.3474 27.3906 33.3976 27.4121 33.4405 27.4551C33.4835 27.498 33.505 27.5482 33.505 27.6055C33.5193 28.4792 33.5265 29.0986 33.5265 29.4639C33.5265 30.026 33.5193 30.5524 33.505 31.043C32.8247 31.0752 31.5965 31.0913 29.8204 31.0913C29.4659 31.0913 28.7104 31.0788 27.5538 31.0537C26.4008 31.0322 25.6346 31.0143 25.255 31C25.1977 31 25.1476 30.9785 25.1046 30.9355C25.0616 30.8926 25.0402 30.8424 25.0402 30.7852C24.9829 28.0924 24.9542 26.0156 24.9542 24.5547ZM35.6311 24.2754C35.6311 23.5592 35.6383 22.5674 35.6526 21.2998C35.6669 20.0322 35.6741 19.0404 35.6741 18.3242C36.3902 18.2132 37.1511 18.1255 37.9568 18.061C38.766 17.993 39.4732 17.959 40.0784 17.959C40.6011 17.959 41.0398 17.9679 41.3943 17.9858C41.7488 18.0002 42.1301 18.036 42.5383 18.0933C42.9501 18.147 43.2885 18.2257 43.5535 18.3296C43.8184 18.4334 44.0834 18.5767 44.3484 18.7593C44.6134 18.9419 44.8192 19.1639 44.9661 19.4253C45.1164 19.6867 45.2382 20.0072 45.3313 20.3867C45.4244 20.7663 45.4709 21.2013 45.4709 21.6919C45.4709 22.4689 45.2704 23.1528 44.8694 23.7437C44.4683 24.3345 43.9097 24.7982 43.1936 25.1348C43.6806 25.3031 44.0762 25.6468 44.3806 26.166C45.0932 27.5661 45.6625 29.1774 46.0886 31C45.4298 31.0788 44.6796 31.1182 43.8381 31.1182C43.2294 31.1182 42.6547 31.1003 42.114 31.0645C42.046 31.0609 41.9797 31.0394 41.9153 31C41.8508 30.9606 41.8079 30.9105 41.7864 30.8496C41.0881 28.7298 40.5456 27.0182 40.1589 25.7148H39.8743C39.8814 26.1159 39.8975 26.9377 39.9226 28.1802C39.9512 29.4227 39.9674 30.3626 39.9709 31C39.3837 31.0251 38.7553 31.0376 38.0857 31.0376C37.4805 31.0376 36.7483 31.0251 35.8889 31C35.828 31 35.7761 30.9803 35.7331 30.9409C35.6938 30.8979 35.6741 30.846 35.6741 30.7852C35.6741 30.1227 35.6669 29.0539 35.6526 27.5786C35.6383 26.1034 35.6311 25.0023 35.6311 24.2754ZM39.8635 23.0723H40.2288C40.5689 23.0723 40.8428 22.9881 41.0505 22.8198C41.2618 22.6479 41.3674 22.4224 41.3674 22.1431C41.3674 21.7922 41.2958 21.5326 41.1526 21.3643C41.0093 21.1924 40.7551 21.1064 40.3899 21.1064C40.2037 21.1064 40.0318 21.1118 39.8743 21.1226C39.8671 21.9604 39.8635 22.6104 39.8635 23.0723ZM47.7689 24.5547C47.7689 22.5495 47.7976 20.401 47.8548 18.1094C48.5352 18.0771 49.1618 18.061 49.7347 18.061C50.3255 18.061 51.0596 18.0771 51.9369 18.1094C51.9942 18.1094 52.0443 18.1309 52.0873 18.1738C52.1302 18.2168 52.1517 18.2669 52.1517 18.3242C52.209 21.0169 52.2377 23.0938 52.2377 24.5547C52.2377 26.5599 52.209 28.7083 52.1517 31C51.4714 31.0322 50.8448 31.0483 50.2718 31.0483C49.681 31.0483 48.947 31.0322 48.0697 31C48.0124 31 47.9623 30.9785 47.9193 30.9355C47.8763 30.8926 47.8548 30.8424 47.8548 30.7852C47.7976 28.0924 47.7689 26.0156 47.7689 24.5547ZM54.6645 24.5547C54.6645 22.5495 54.6932 20.401 54.7505 18.1094C55.4308 18.0771 56.0216 18.061 56.5229 18.061C56.949 18.061 57.5685 18.0771 58.3813 18.1094C58.4852 18.113 58.5639 18.1846 58.6177 18.3242L60.8413 23.8242L60.7661 18.1094C61.45 18.0771 62.0766 18.061 62.646 18.061C63.2046 18.061 63.867 18.0771 64.6333 18.1094C64.6942 18.113 64.7443 18.1362 64.7837 18.1792C64.8266 18.2186 64.8481 18.2669 64.8481 18.3242C64.9054 21.0169 64.9341 23.0938 64.9341 24.5547C64.9341 26.5599 64.9054 28.7083 64.8481 31C64.2537 31.0322 63.6987 31.0483 63.1831 31.0483C62.5708 31.0483 61.9155 31.0322 61.2173 31C61.1098 30.9964 61.0311 30.9248 60.9809 30.7852L58.7573 25.2852L58.8325 31C58.1522 31.0322 57.5613 31.0483 57.06 31.0483C56.4943 31.0483 55.796 31.0322 54.9653 31C54.9044 30.9964 54.8525 30.9749 54.8096 30.9355C54.7702 30.8926 54.7505 30.8424 54.7505 30.7852C54.6932 28.0924 54.6645 26.0156 54.6645 24.5547ZM66.9313 24.5493C66.9313 23.5539 67.0208 22.6802 67.1998 21.9282C67.3824 21.1727 67.6367 20.5461 67.9625 20.0483C68.2883 19.547 68.6983 19.1406 69.1925 18.8291C69.6902 18.514 70.2345 18.2902 70.8253 18.1577C71.4161 18.0252 72.0875 17.959 72.8395 17.959C73.8886 17.959 75.1705 18.0807 76.6852 18.3242L76.234 21.7188H72.4098C72.2809 21.7188 72.1716 21.7349 72.0821 21.7671C71.9926 21.7993 71.9031 21.8709 71.8136 21.9819C71.7241 22.0929 71.6524 22.2487 71.5987 22.4492C71.5486 22.6497 71.5056 22.9255 71.4698 23.2764C71.4376 23.6273 71.4215 24.0516 71.4215 24.5493C71.4215 24.9647 71.434 25.3317 71.4591 25.6504C71.4841 25.9655 71.5217 26.2251 71.5719 26.4292C71.6256 26.6297 71.6829 26.7962 71.7438 26.9287C71.8046 27.0612 71.8798 27.1597 71.9693 27.2241C72.0589 27.2886 72.1448 27.3333 72.2271 27.3584C72.3095 27.3799 72.4062 27.3906 72.5172 27.3906H72.9469C72.9469 26.6888 72.9182 25.6003 72.8609 24.125C73.4911 24.0964 74.0569 24.082 74.5582 24.082C75.0882 24.082 75.7112 24.0964 76.4273 24.125C76.4846 24.1286 76.533 24.1519 76.5724 24.1948C76.6153 24.2342 76.6386 24.2826 76.6422 24.3398C76.6995 25.6647 76.7281 26.6673 76.7281 27.3477C76.7281 28.5257 76.6995 29.6214 76.6422 30.6348C76.0335 30.7422 75.5823 30.8192 75.2887 30.8657C74.9951 30.9123 74.6298 30.9535 74.193 30.9893C73.7561 31.0251 73.2906 31.043 72.7965 31.043C72.3775 31.043 71.9926 31.0286 71.6417 31C71.2908 30.9678 70.9435 30.9159 70.5997 30.8442C70.2595 30.769 69.9498 30.6724 69.6705 30.5542C69.3912 30.436 69.1227 30.2856 68.8648 30.103C68.6106 29.9204 68.385 29.7091 68.1881 29.4692C67.9911 29.2257 67.8121 28.9429 67.651 28.6206C67.4898 28.2983 67.3574 27.9367 67.2535 27.5356C67.1497 27.1346 67.0691 26.6852 67.0118 26.1875C66.9581 25.6862 66.9313 25.1401 66.9313 24.5493ZM79.0261 24.5547C79.0261 22.5495 79.0547 20.401 79.112 18.1094C79.7924 18.0771 80.419 18.061 80.9919 18.061C81.5827 18.061 82.3168 18.0771 83.1941 18.1094C83.2514 18.1094 83.3015 18.1309 83.3445 18.1738C83.3874 18.2168 83.4089 18.2669 83.4089 18.3242C83.4125 18.4925 83.4143 18.745 83.4143 19.0815C83.4143 19.4396 83.3874 20.6213 83.3337 22.6265C83.3838 22.6265 83.4608 22.6265 83.5647 22.6265C83.6721 22.6229 83.7527 22.6211 83.8064 22.6211C83.9389 22.2201 84.177 21.5236 84.5207 20.5317C84.8645 19.5363 85.1205 18.7826 85.2888 18.2705C85.3103 18.2096 85.3532 18.1595 85.4177 18.1201C85.4821 18.0807 85.5484 18.0592 85.6164 18.0557C86.1571 18.0199 86.7318 18.002 87.3405 18.002C88.1104 18.002 88.8248 18.0413 89.4836 18.1201C89.0432 20 88.438 21.6973 87.6682 23.2119C87.2457 23.9316 86.6871 24.3112 85.9924 24.3506V24.3828C86.3576 24.4043 86.6889 24.5153 86.9861 24.7158C87.2833 24.9128 87.5321 25.1813 87.7326 25.5215C88.3628 26.764 88.9608 28.5902 89.5266 31C88.8677 31.0788 88.1176 31.1182 87.2761 31.1182C86.6674 31.1182 86.0927 31.1003 85.552 31.0645C85.4839 31.0609 85.4177 31.0394 85.3532 31C85.2888 30.9606 85.2458 30.9105 85.2243 30.8496C84.8734 29.779 84.3757 28.0763 83.7312 25.7417H83.3176C83.3212 25.8599 83.3391 26.4704 83.3713 27.5732C83.4035 28.6725 83.4196 29.5086 83.4196 30.0815C83.4196 30.2856 83.4161 30.5918 83.4089 31C82.7286 31.0322 82.1019 31.0483 81.529 31.0483C80.9382 31.0483 80.2042 31.0322 79.3269 31C79.2696 31 79.2195 30.9785 79.1765 30.9355C79.1335 30.8926 79.112 30.8424 79.112 30.7852C79.0547 28.0924 79.0261 26.0156 79.0261 24.5547ZM90.5785 30.8228C90.5785 30.7655 90.6125 30.5417 90.6805 30.1514C90.8703 28.9733 91.0869 27.7541 91.3304 26.4937C91.5739 25.2297 91.889 23.6631 92.2757 21.7939C92.6624 19.9212 92.9149 18.693 93.0331 18.1094C93.7492 18.0771 94.7339 18.061 95.9872 18.061C97.1545 18.061 98.175 18.0771 99.0487 18.1094C99.106 18.1094 99.1597 18.1309 99.2098 18.1738C99.2599 18.2132 99.2904 18.2633 99.3011 18.3242C99.4587 19.1227 99.7254 20.4279 100.101 22.2397C100.481 24.0516 100.803 25.654 101.068 27.0469C101.337 28.4362 101.566 29.7539 101.756 31C101.079 31.0322 100.456 31.0483 99.8866 31.0483C98.9735 31.0483 98.2717 31.0322 97.7811 31C97.7202 30.9964 97.6647 30.9749 97.6146 30.9355C97.568 30.8926 97.5394 30.8424 97.5287 30.7852C97.3675 29.9616 97.2368 29.2454 97.1366 28.6367H95.1439C95.0293 29.403 94.8914 30.1908 94.7303 31C94.0428 31.0322 93.4502 31.0483 92.9525 31.0483C92.3581 31.0483 91.6258 31.0322 90.7557 31C90.702 31 90.659 30.9839 90.6268 30.9517C90.5946 30.9159 90.5785 30.8729 90.5785 30.8228ZM95.5038 25.8438H96.7122C96.6263 25.2565 96.5099 24.4204 96.3631 23.3354C96.2163 22.2469 96.1107 21.4771 96.0462 21.0259C95.9746 21.6095 95.8797 22.4474 95.7616 23.5396C95.6434 24.6281 95.5575 25.3962 95.5038 25.8438ZM102.27 19.7422C102.27 19.1657 102.278 18.6214 102.292 18.1094C102.976 18.0771 104.634 18.061 107.266 18.061C109.346 18.061 110.825 18.0771 111.702 18.1094C111.759 18.1094 111.81 18.1309 111.853 18.1738C111.895 18.2168 111.917 18.2669 111.917 18.3242C111.931 19.1335 111.938 19.7422 111.938 20.1504C111.938 20.734 111.931 21.2712 111.917 21.7617C111.684 21.7725 110.818 21.785 109.317 21.7993C109.332 22.5728 109.339 23.4912 109.339 24.5547C109.339 26.5599 109.31 28.7083 109.253 31C108.573 31.0322 107.946 31.0483 107.373 31.0483C106.782 31.0483 106.048 31.0322 105.171 31C105.114 31 105.063 30.9785 105.02 30.9355C104.978 30.8926 104.956 30.8424 104.956 30.7852C104.899 28.0924 104.87 26.0156 104.87 24.5547C104.87 23.8923 104.877 22.9666 104.892 21.7778C104.068 21.7599 103.273 21.7402 102.507 21.7188C102.45 21.7188 102.399 21.6973 102.356 21.6543C102.313 21.6113 102.292 21.5612 102.292 21.5039C102.278 20.6803 102.27 20.0931 102.27 19.7422Z" fill="white"/>
</g>
<defs>
<filter id="filter0_d_204_54" x="0" y="0" width="124" height="58" filterUnits="userSpaceOnUse" color-interpolation-filters="sRGB">
<feFlood flood-opacity="0" result="BackgroundImageFix"/>
<feColorMatrix in="SourceAlpha" type="matrix" values="0 0 0 0 0 0 0 0 0 0 0 0 0 0 0 0 0 0 127 0" result="hardAlpha"/>
<feOffset dy="4"/>
<feComposite in2="hardAlpha" operator="out"/>
<feColorMatrix type="matrix" values="0 0 0 0 0 0 0 0 0 0 0 0 0 0 0 0 0 0 0.15 0"/>
<feBlend mode="normal" in2="BackgroundImageFix" result="effect1_dropShadow_204_54"/>
<feBlend mode="normal" in="SourceGraphic" in2="effect1_dropShadow_204_54" result="shape"/>
</filter>
<filter id="filter1_d_204_54" x="13.0312" y="17.959" width="98.9072" height="15.1592" filterUnits="userSpaceOnUse" color-interpolation-filters="sRGB">
<feFlood flood-opacity="0" result="BackgroundImageFix"/>
<feColorMatrix in="SourceAlpha" type="matrix" values="0 0 0 0 0 0 0 0 0 0 0 0 0 0 0 0 0 0 127 0" result="hardAlpha"/>
<feOffset dy="2"/>
<feComposite in2="hardAlpha" operator="out"/>
<feColorMatrix type="matrix" values="0 0 0 0 0 0 0 0 0 0 0 0 0 0 0 0 0 0 0.15 0"/>
<feBlend mode="normal" in2="BackgroundImageFix" result="effect1_dropShadow_204_54"/>
<feBlend mode="normal" in="SourceGraphic" in2="effect1_dropShadow_204_54" result="shape"/>
</filter>
</defs>
</svg>
