<svg width="124" height="58" viewBox="0 0 124 58" fill="none" xmlns="http://www.w3.org/2000/svg">
<g filter="url(#filter0_d_202_2131)">
<rect x="3" y="3" width="118" height="48" rx="22" fill="#4EC407"/>
<rect x="1.5" y="1.5" width="121" height="51" rx="23.5" stroke="white" stroke-width="3"/>
</g>
<rect x="3" y="3" width="118" height="43" rx="21.5" fill="#67EB00"/>
<path opacity="0.5" fill-rule="evenodd" clip-rule="evenodd" d="M45.2286 3H24.5C12.6259 3 3 12.6259 3 24.5C3 36.3741 12.6259 46 24.5 46H82.5614L45.2286 3Z" fill="#A6F208"/>
<g filter="url(#filter1_d_202_2131)">
<path d="M33.0781 23.9688C33.0781 21.7812 33.1094 19.4375 33.1719 16.9375C33.9141 16.9023 34.5586 16.8848 35.1055 16.8848C35.7617 16.8848 36.4375 16.9023 37.1328 16.9375C37.2461 16.9414 37.332 17.0195 37.3906 17.1719L40.332 23.1719L43.2734 17.1719C43.3828 17.0273 43.4785 16.9512 43.5605 16.9434C44.0488 16.9043 44.5977 16.8848 45.207 16.8848C45.8633 16.8848 46.5859 16.9023 47.375 16.9375C47.4414 16.9414 47.4961 16.9668 47.5391 17.0137C47.5859 17.0566 47.6094 17.1094 47.6094 17.1719C47.6719 20.1094 47.7031 22.375 47.7031 23.9688C47.7031 26.1562 47.6719 28.5 47.6094 31C46.9375 31.0352 46.332 31.0527 45.793 31.0527C45.3047 31.0527 44.582 31.0352 43.625 31C43.5625 31 43.5078 30.9766 43.4609 30.9297C43.4141 30.8828 43.3906 30.8281 43.3906 30.7656C43.3789 30.3281 43.3613 29.6738 43.3379 28.8027C43.3145 27.9277 43.2949 27.1348 43.2793 26.4238C43.2637 25.709 43.2539 25.0254 43.25 24.373L40.5781 29.8281L40.3203 29.875L40.0859 29.8281L37.543 24.6367L37.625 31C36.8828 31.0352 36.2383 31.0527 35.6914 31.0527C35.125 31.0527 34.3633 31.0352 33.4062 31C33.3438 31 33.2891 30.9766 33.2422 30.9297C33.1953 30.8828 33.1719 30.8281 33.1719 30.7656C33.1094 27.8281 33.0781 25.5625 33.0781 23.9688ZM49.9053 24.0566C49.9053 21.8105 49.9366 19.4375 49.9991 16.9375C50.7412 16.9023 51.4248 16.8848 52.0498 16.8848C52.6944 16.8848 53.4952 16.9023 54.4522 16.9375C54.5147 16.9375 54.5694 16.9609 54.6162 17.0078C54.6631 17.0547 54.6866 17.1094 54.6866 17.1719C54.7491 20.1094 54.7803 22.6406 54.7803 24.7656C54.7803 25.2773 54.7979 25.6934 54.833 26.0137C54.8682 26.334 54.9287 26.5781 55.0147 26.7461C55.1006 26.9102 55.1963 27.0195 55.3018 27.0742C55.4073 27.1289 55.5459 27.1562 55.7178 27.1562C55.9483 27.1562 56.1221 27.1035 56.2393 26.998C56.3565 26.8926 56.4463 26.666 56.5088 26.3184C56.5752 25.9668 56.6084 25.4473 56.6084 24.7598C56.6084 22.0449 56.6397 19.4375 56.7022 16.9375C57.4483 16.9023 58.1319 16.8848 58.753 16.8848C59.3975 16.8848 60.1983 16.9023 61.1553 16.9375C61.2178 16.9375 61.2725 16.9609 61.3194 17.0078C61.3662 17.0547 61.3897 17.1094 61.3897 17.1719C61.4522 20.1094 61.4834 22.4043 61.4834 24.0566C61.4834 25.0605 61.4073 25.9531 61.2549 26.7344C61.1026 27.5156 60.8838 28.1816 60.5987 28.7324C60.3135 29.2793 59.9541 29.7344 59.5205 30.0977C59.0909 30.4609 58.6084 30.7324 58.0733 30.9121C57.5381 31.0918 56.9327 31.1992 56.2569 31.2344C55.7061 31.2344 55.21 31.2109 54.7686 31.1641C54.3272 31.1211 53.8995 31.0469 53.4854 30.9414C53.0713 30.8359 52.7061 30.6953 52.3897 30.5195C52.0733 30.3398 51.7764 30.1191 51.4991 29.8574C51.2256 29.5918 50.9932 29.2793 50.8018 28.9199C50.6104 28.5566 50.4444 28.1387 50.3037 27.666C50.167 27.1934 50.0655 26.6582 49.9991 26.0605C49.9366 25.459 49.9053 24.791 49.9053 24.0566ZM63.6856 23.9688C63.6856 21.7812 63.7169 19.4375 63.7794 16.9375C64.5216 16.9023 65.2052 16.8848 65.8302 16.8848C66.4747 16.8848 67.2755 16.9023 68.2325 16.9375C68.295 16.9375 68.3497 16.9609 68.3966 17.0078C68.4434 17.0547 68.4669 17.1094 68.4669 17.1719C68.5294 20.1094 68.5606 22.375 68.5606 23.9688C68.5606 25.0078 68.5548 26.0215 68.543 27.0098H68.6427C70.0684 27.0098 71.2598 27.0273 72.2169 27.0625C72.2794 27.0625 72.3341 27.0859 72.3809 27.1328C72.4278 27.1797 72.4513 27.2344 72.4513 27.2969C72.4669 28.25 72.4747 28.9258 72.4747 29.3242C72.4747 29.9375 72.4669 30.5117 72.4513 31.0469C71.7091 31.082 70.5567 31.0996 68.9942 31.0996C68.6075 31.0996 67.7833 31.0859 66.5216 31.0586C65.2638 31.0352 64.4278 31.0156 64.0138 31C63.9513 31 63.8966 30.9766 63.8497 30.9297C63.8028 30.8828 63.7794 30.8281 63.7794 30.7656C63.7169 27.8281 63.6856 25.5625 63.6856 23.9688ZM73.4054 30.8066C73.4054 30.7441 73.4425 30.5 73.5167 30.0742C73.7238 28.7891 73.9601 27.459 74.2257 26.084C74.4913 24.7051 74.8351 22.9961 75.257 20.957C75.6788 18.9141 75.9542 17.5742 76.0831 16.9375C76.8644 16.9023 77.9386 16.8848 79.3058 16.8848C80.5792 16.8848 81.6925 16.9023 82.6456 16.9375C82.7081 16.9375 82.7667 16.9609 82.8214 17.0078C82.8761 17.0508 82.9093 17.1055 82.921 17.1719C83.0929 18.043 83.3839 19.4668 83.7941 21.4434C84.2081 23.4199 84.5597 25.168 84.8488 26.6875C85.1417 28.2031 85.3917 29.6406 85.5988 31C84.8605 31.0352 84.1808 31.0527 83.5597 31.0527C82.5636 31.0527 81.798 31.0352 81.2628 31C81.1964 30.9961 81.1359 30.9727 81.0812 30.9297C81.0304 30.8828 80.9991 30.8281 80.9874 30.7656C80.8116 29.8672 80.6691 29.0859 80.5597 28.4219H78.3859C78.2609 29.2578 78.1105 30.1172 77.9347 31C77.1847 31.0352 76.5382 31.0527 75.9952 31.0527C75.3468 31.0527 74.548 31.0352 73.5988 31C73.5402 31 73.4933 30.9824 73.4581 30.9473C73.423 30.9082 73.4054 30.8613 73.4054 30.8066ZM78.7784 25.375H80.0968C80.003 24.7344 79.8761 23.8223 79.7159 22.6387C79.5558 21.4512 79.4405 20.6113 79.3702 20.1191C79.2921 20.7559 79.1886 21.6699 79.0597 22.8613C78.9308 24.0488 78.837 24.8867 78.7784 25.375ZM87.4025 23.9688C87.4025 21.7812 87.4338 19.4375 87.4963 16.9375C88.2384 16.9023 88.922 16.8848 89.547 16.8848C90.1916 16.8848 90.9923 16.9023 91.9494 16.9375C92.0119 16.9375 92.0666 16.9609 92.1134 17.0078C92.1603 17.0547 92.1838 17.1094 92.1838 17.1719C92.2463 20.1094 92.2775 22.375 92.2775 23.9688C92.2775 26.1562 92.2463 28.5 92.1838 31C91.4416 31.0352 90.758 31.0527 90.133 31.0527C89.4884 31.0527 88.6877 31.0352 87.7306 31C87.6681 31 87.6134 30.9766 87.5666 30.9297C87.5197 30.8828 87.4963 30.8281 87.4963 30.7656C87.4338 27.8281 87.4025 25.5625 87.4025 23.9688Z" fill="white"/>
</g>
<defs>
<filter id="filter0_d_202_2131" x="0" y="0" width="124" height="58" filterUnits="userSpaceOnUse" color-interpolation-filters="sRGB">
<feFlood flood-opacity="0" result="BackgroundImageFix"/>
<feColorMatrix in="SourceAlpha" type="matrix" values="0 0 0 0 0 0 0 0 0 0 0 0 0 0 0 0 0 0 127 0" result="hardAlpha"/>
<feOffset dy="4"/>
<feComposite in2="hardAlpha" operator="out"/>
<feColorMatrix type="matrix" values="0 0 0 0 0 0 0 0 0 0 0 0 0 0 0 0 0 0 0.15 0"/>
<feBlend mode="normal" in2="BackgroundImageFix" result="effect1_dropShadow_202_2131"/>
<feBlend mode="normal" in="SourceGraphic" in2="effect1_dropShadow_202_2131" result="shape"/>
</filter>
<filter id="filter1_d_202_2131" x="33.0781" y="16.8848" width="59.1995" height="16.3496" filterUnits="userSpaceOnUse" color-interpolation-filters="sRGB">
<feFlood flood-opacity="0" result="BackgroundImageFix"/>
<feColorMatrix in="SourceAlpha" type="matrix" values="0 0 0 0 0 0 0 0 0 0 0 0 0 0 0 0 0 0 127 0" result="hardAlpha"/>
<feOffset dy="2"/>
<feComposite in2="hardAlpha" operator="out"/>
<feColorMatrix type="matrix" values="0 0 0 0 0 0 0 0 0 0 0 0 0 0 0 0 0 0 0.15 0"/>
<feBlend mode="normal" in2="BackgroundImageFix" result="effect1_dropShadow_202_2131"/>
<feBlend mode="normal" in="SourceGraphic" in2="effect1_dropShadow_202_2131" result="shape"/>
</filter>
</defs>
</svg>
