<svg width="40" height="40" viewBox="0 0 40 40" fill="none" xmlns="http://www.w3.org/2000/svg">
<circle cx="19.8431" cy="19.8431" r="18.3431" fill="#4CDAFE" stroke="white" stroke-width="3"/>
<path d="M17.4789 10.4148L17.4789 10.4148L10.383 17.7338C10.3829 17.7339 10.3828 17.734 10.3827 17.7341C9.76119 18.3743 9.42151 19.2239 9.42151 20.1224C9.42151 21.0203 9.76053 21.8706 10.378 22.5049C10.8945 23.0388 11.5567 23.3748 12.2739 23.4727V27.031C12.2739 28.8019 13.6704 30.2647 15.4246 30.2647H24.2616C26.0158 30.2647 27.4123 28.8019 27.4123 27.031V23.4729C28.1286 23.3754 28.7902 23.0407 29.3057 22.5069C30.5844 21.1901 30.5841 19.0533 29.306 17.7354L22.2126 10.4206C22.2125 10.4204 22.2123 10.4203 22.2121 10.4201C21.5926 9.7773 20.7613 9.42157 19.8742 9.42157H19.8112C18.9278 9.42157 18.0984 9.77579 17.4789 10.4148ZM20.9995 26.4122C20.9995 26.9441 20.5198 27.4424 19.8422 27.4424C19.1653 27.4424 18.6858 26.9444 18.6858 26.4122V24.5896C18.6858 24.0575 19.1652 23.5595 19.8422 23.5595C20.5197 23.5595 20.9995 24.0576 20.9995 24.5896V26.4122Z" fill="white" stroke="#00ADE3"/>
</svg>
